<mxfile host="app.diagrams.net" agent="Mozilla/5.0 (Windows NT 10.0; Win64; x64) AppleWebKit/537.36 (KHTML, like Gecko) Chrome/131.0.0.0 Safari/537.36" version="25.0.3">
  <diagram id="C5RBs43oDa-KdzZeNtuy" name="Page-1">
    <mxGraphModel dx="1195" dy="622" grid="1" gridSize="10" guides="1" tooltips="1" connect="1" arrows="1" fold="1" page="1" pageScale="1" pageWidth="827" pageHeight="1169" math="0" shadow="0">
      <root>
        <mxCell id="WIyWlLk6GJQsqaUBKTNV-0" />
        <mxCell id="WIyWlLk6GJQsqaUBKTNV-1" parent="WIyWlLk6GJQsqaUBKTNV-0" />
        <mxCell id="WIyWlLk6GJQsqaUBKTNV-2" value="" style="rounded=0;html=1;jettySize=auto;orthogonalLoop=1;fontSize=11;endArrow=block;endFill=0;endSize=8;strokeWidth=1;shadow=0;labelBackgroundColor=none;edgeStyle=orthogonalEdgeStyle;" parent="WIyWlLk6GJQsqaUBKTNV-1" source="WIyWlLk6GJQsqaUBKTNV-3" target="o8BdS--VJKAUu7oqtnM3-0" edge="1">
          <mxGeometry relative="1" as="geometry">
            <mxPoint x="490" y="160" as="targetPoint" />
          </mxGeometry>
        </mxCell>
        <mxCell id="WIyWlLk6GJQsqaUBKTNV-3" value="게임 시작" style="rounded=1;whiteSpace=wrap;html=1;fontSize=12;glass=0;strokeWidth=1;shadow=0;" parent="WIyWlLk6GJQsqaUBKTNV-1" vertex="1">
          <mxGeometry x="430" y="80" width="120" height="40" as="geometry" />
        </mxCell>
        <mxCell id="o8BdS--VJKAUu7oqtnM3-0" value="랜덤 맵 생성" style="rounded=0;whiteSpace=wrap;html=1;" parent="WIyWlLk6GJQsqaUBKTNV-1" vertex="1">
          <mxGeometry x="430" y="160" width="120" height="40" as="geometry" />
        </mxCell>
        <mxCell id="o8BdS--VJKAUu7oqtnM3-1" value="100걸음을 걸었는가?" style="rhombus;whiteSpace=wrap;html=1;" parent="WIyWlLk6GJQsqaUBKTNV-1" vertex="1">
          <mxGeometry x="10" y="320" width="160" height="60" as="geometry" />
        </mxCell>
        <mxCell id="o8BdS--VJKAUu7oqtnM3-3" value="열매 세 개를 먹었는가?" style="rhombus;whiteSpace=wrap;html=1;" parent="WIyWlLk6GJQsqaUBKTNV-1" vertex="1">
          <mxGeometry x="405" y="320" width="170" height="60" as="geometry" />
        </mxCell>
        <mxCell id="o8BdS--VJKAUu7oqtnM3-8" value="No" style="endArrow=classic;html=1;rounded=0;fontSize=12;startSize=8;endSize=8;curved=1;exitX=0;exitY=0.5;exitDx=0;exitDy=0;entryX=1;entryY=0.5;entryDx=0;entryDy=0;" parent="WIyWlLk6GJQsqaUBKTNV-1" source="o8BdS--VJKAUu7oqtnM3-3" target="o8BdS--VJKAUu7oqtnM3-1" edge="1">
          <mxGeometry width="50" height="50" relative="1" as="geometry">
            <mxPoint x="335" y="350" as="sourcePoint" />
            <mxPoint x="440" y="300" as="targetPoint" />
          </mxGeometry>
        </mxCell>
        <mxCell id="o8BdS--VJKAUu7oqtnM3-14" style="edgeStyle=none;curved=1;rounded=0;orthogonalLoop=1;jettySize=auto;html=1;entryX=0.5;entryY=0;entryDx=0;entryDy=0;fontSize=12;startSize=8;endSize=8;" parent="WIyWlLk6GJQsqaUBKTNV-1" source="o8BdS--VJKAUu7oqtnM3-11" target="o8BdS--VJKAUu7oqtnM3-3" edge="1">
          <mxGeometry relative="1" as="geometry" />
        </mxCell>
        <mxCell id="o8BdS--VJKAUu7oqtnM3-11" value="걷기" style="rounded=0;whiteSpace=wrap;html=1;" parent="WIyWlLk6GJQsqaUBKTNV-1" vertex="1">
          <mxGeometry x="430" y="240" width="120" height="40" as="geometry" />
        </mxCell>
        <mxCell id="o8BdS--VJKAUu7oqtnM3-13" value="" style="endArrow=classic;html=1;rounded=0;fontSize=12;startSize=8;endSize=8;curved=1;exitX=0.5;exitY=1;exitDx=0;exitDy=0;" parent="WIyWlLk6GJQsqaUBKTNV-1" source="o8BdS--VJKAUu7oqtnM3-0" target="o8BdS--VJKAUu7oqtnM3-11" edge="1">
          <mxGeometry width="50" height="50" relative="1" as="geometry">
            <mxPoint x="360" y="310" as="sourcePoint" />
            <mxPoint x="410" y="260" as="targetPoint" />
          </mxGeometry>
        </mxCell>
        <mxCell id="o8BdS--VJKAUu7oqtnM3-15" value="No" style="edgeStyle=segmentEdgeStyle;endArrow=classic;html=1;curved=0;rounded=0;endSize=8;startSize=8;fontSize=12;exitX=0.5;exitY=0;exitDx=0;exitDy=0;entryX=0;entryY=0.5;entryDx=0;entryDy=0;" parent="WIyWlLk6GJQsqaUBKTNV-1" source="o8BdS--VJKAUu7oqtnM3-1" target="o8BdS--VJKAUu7oqtnM3-11" edge="1">
          <mxGeometry width="50" height="50" relative="1" as="geometry">
            <mxPoint x="360" y="310" as="sourcePoint" />
            <mxPoint x="410" y="260" as="targetPoint" />
            <Array as="points">
              <mxPoint x="90" y="260" />
            </Array>
          </mxGeometry>
        </mxCell>
        <mxCell id="o8BdS--VJKAUu7oqtnM3-16" value="게임 끝" style="rounded=1;whiteSpace=wrap;html=1;fontSize=12;glass=0;strokeWidth=1;shadow=0;" parent="WIyWlLk6GJQsqaUBKTNV-1" vertex="1">
          <mxGeometry x="430" y="610" width="120" height="40" as="geometry" />
        </mxCell>
        <mxCell id="o8BdS--VJKAUu7oqtnM3-21" value="몇 없는 기회는 돌아오지 않습니다." style="shape=document;whiteSpace=wrap;html=1;boundedLbl=1;" parent="WIyWlLk6GJQsqaUBKTNV-1" vertex="1">
          <mxGeometry x="230" y="425" width="130" height="50" as="geometry" />
        </mxCell>
        <mxCell id="o8BdS--VJKAUu7oqtnM3-27" value="열매를 0~1개 먹었는가?" style="rhombus;whiteSpace=wrap;html=1;" parent="WIyWlLk6GJQsqaUBKTNV-1" vertex="1">
          <mxGeometry x="10" y="420" width="160" height="60" as="geometry" />
        </mxCell>
        <mxCell id="o8BdS--VJKAUu7oqtnM3-30" value="Yes" style="endArrow=classic;html=1;rounded=0;fontSize=12;startSize=8;endSize=8;curved=1;exitX=0.5;exitY=1;exitDx=0;exitDy=0;" parent="WIyWlLk6GJQsqaUBKTNV-1" source="o8BdS--VJKAUu7oqtnM3-1" target="o8BdS--VJKAUu7oqtnM3-27" edge="1">
          <mxGeometry width="50" height="50" relative="1" as="geometry">
            <mxPoint x="210" y="360" as="sourcePoint" />
            <mxPoint x="260" y="310" as="targetPoint" />
          </mxGeometry>
        </mxCell>
        <mxCell id="o8BdS--VJKAUu7oqtnM3-31" value="Yes" style="endArrow=classic;html=1;rounded=0;fontSize=12;startSize=8;endSize=8;curved=1;exitX=1;exitY=0.5;exitDx=0;exitDy=0;" parent="WIyWlLk6GJQsqaUBKTNV-1" source="o8BdS--VJKAUu7oqtnM3-27" target="o8BdS--VJKAUu7oqtnM3-21" edge="1">
          <mxGeometry width="50" height="50" relative="1" as="geometry">
            <mxPoint x="210" y="360" as="sourcePoint" />
            <mxPoint x="230" y="450" as="targetPoint" />
          </mxGeometry>
        </mxCell>
        <mxCell id="o8BdS--VJKAUu7oqtnM3-32" style="edgeStyle=none;curved=1;rounded=0;orthogonalLoop=1;jettySize=auto;html=1;entryX=0;entryY=0.5;entryDx=0;entryDy=0;fontSize=12;startSize=8;endSize=8;" parent="WIyWlLk6GJQsqaUBKTNV-1" source="o8BdS--VJKAUu7oqtnM3-21" target="o8BdS--VJKAUu7oqtnM3-21" edge="1">
          <mxGeometry relative="1" as="geometry" />
        </mxCell>
        <mxCell id="o8BdS--VJKAUu7oqtnM3-34" value="열매를 2개 먹었는가?" style="rhombus;whiteSpace=wrap;html=1;" parent="WIyWlLk6GJQsqaUBKTNV-1" vertex="1">
          <mxGeometry x="10" y="520" width="160" height="60" as="geometry" />
        </mxCell>
        <mxCell id="o8BdS--VJKAUu7oqtnM3-35" value="No" style="endArrow=classic;html=1;rounded=0;fontSize=12;startSize=8;endSize=8;curved=1;exitX=0.5;exitY=1;exitDx=0;exitDy=0;" parent="WIyWlLk6GJQsqaUBKTNV-1" source="o8BdS--VJKAUu7oqtnM3-27" target="o8BdS--VJKAUu7oqtnM3-34" edge="1">
          <mxGeometry width="50" height="50" relative="1" as="geometry">
            <mxPoint x="90" y="480" as="sourcePoint" />
            <mxPoint x="260" y="410" as="targetPoint" />
          </mxGeometry>
        </mxCell>
        <mxCell id="o8BdS--VJKAUu7oqtnM3-36" value="앞으론 걱정말고 후회없는 선택을 하세요." style="shape=document;whiteSpace=wrap;html=1;boundedLbl=1;" parent="WIyWlLk6GJQsqaUBKTNV-1" vertex="1">
          <mxGeometry x="230" y="525" width="130" height="50" as="geometry" />
        </mxCell>
        <mxCell id="o8BdS--VJKAUu7oqtnM3-37" value="Yes" style="endArrow=classic;html=1;rounded=0;fontSize=12;startSize=8;endSize=8;curved=1;exitX=1;exitY=0.5;exitDx=0;exitDy=0;entryX=0;entryY=0.5;entryDx=0;entryDy=0;" parent="WIyWlLk6GJQsqaUBKTNV-1" source="o8BdS--VJKAUu7oqtnM3-34" target="o8BdS--VJKAUu7oqtnM3-36" edge="1">
          <mxGeometry width="50" height="50" relative="1" as="geometry">
            <mxPoint x="170" y="555" as="sourcePoint" />
            <mxPoint x="230" y="555" as="targetPoint" />
          </mxGeometry>
        </mxCell>
        <mxCell id="o8BdS--VJKAUu7oqtnM3-38" style="edgeStyle=none;curved=1;rounded=0;orthogonalLoop=1;jettySize=auto;html=1;entryX=0;entryY=0.5;entryDx=0;entryDy=0;fontSize=12;startSize=8;endSize=8;" parent="WIyWlLk6GJQsqaUBKTNV-1" source="o8BdS--VJKAUu7oqtnM3-36" target="o8BdS--VJKAUu7oqtnM3-36" edge="1">
          <mxGeometry relative="1" as="geometry" />
        </mxCell>
        <mxCell id="o8BdS--VJKAUu7oqtnM3-39" value="" style="edgeStyle=segmentEdgeStyle;endArrow=classic;html=1;curved=0;rounded=0;endSize=8;startSize=8;fontSize=12;exitX=1;exitY=0.5;exitDx=0;exitDy=0;" parent="WIyWlLk6GJQsqaUBKTNV-1" source="o8BdS--VJKAUu7oqtnM3-21" edge="1">
          <mxGeometry width="50" height="50" relative="1" as="geometry">
            <mxPoint x="420" y="450" as="sourcePoint" />
            <mxPoint x="490" y="610" as="targetPoint" />
          </mxGeometry>
        </mxCell>
        <mxCell id="o8BdS--VJKAUu7oqtnM3-42" value="당신의 선택에 후회는 없으신가요?" style="shape=document;whiteSpace=wrap;html=1;boundedLbl=1;" parent="WIyWlLk6GJQsqaUBKTNV-1" vertex="1">
          <mxGeometry x="650" y="307.5" width="130" height="85" as="geometry" />
        </mxCell>
        <mxCell id="o8BdS--VJKAUu7oqtnM3-43" value="Yes" style="endArrow=classic;html=1;rounded=0;fontSize=12;startSize=8;endSize=8;curved=1;exitX=1;exitY=0.5;exitDx=0;exitDy=0;entryX=0;entryY=0.5;entryDx=0;entryDy=0;" parent="WIyWlLk6GJQsqaUBKTNV-1" source="o8BdS--VJKAUu7oqtnM3-3" target="o8BdS--VJKAUu7oqtnM3-42" edge="1">
          <mxGeometry width="50" height="50" relative="1" as="geometry">
            <mxPoint x="580" y="330" as="sourcePoint" />
            <mxPoint x="630" y="280" as="targetPoint" />
          </mxGeometry>
        </mxCell>
        <mxCell id="o8BdS--VJKAUu7oqtnM3-52" value="" style="endArrow=classic;html=1;rounded=0;fontSize=12;startSize=8;endSize=8;curved=1;exitX=1;exitY=0.5;exitDx=0;exitDy=0;" parent="WIyWlLk6GJQsqaUBKTNV-1" source="o8BdS--VJKAUu7oqtnM3-36" edge="1">
          <mxGeometry width="50" height="50" relative="1" as="geometry">
            <mxPoint x="470" y="400" as="sourcePoint" />
            <mxPoint x="490" y="550" as="targetPoint" />
          </mxGeometry>
        </mxCell>
        <mxCell id="o8BdS--VJKAUu7oqtnM3-53" value="" style="edgeStyle=segmentEdgeStyle;endArrow=classic;html=1;curved=0;rounded=0;endSize=8;startSize=8;fontSize=12;exitX=0.515;exitY=0.865;exitDx=0;exitDy=0;exitPerimeter=0;" parent="WIyWlLk6GJQsqaUBKTNV-1" source="o8BdS--VJKAUu7oqtnM3-42" edge="1">
          <mxGeometry width="50" height="50" relative="1" as="geometry">
            <mxPoint x="470" y="400" as="sourcePoint" />
            <mxPoint x="490" y="510" as="targetPoint" />
            <Array as="points">
              <mxPoint x="717" y="510" />
            </Array>
          </mxGeometry>
        </mxCell>
        <mxCell id="Yv9VvEMkwSm-lmWDdrA2-6" value="맵 이동이 제한적일 경우" style="curved=1;endArrow=classic;html=1;rounded=0;entryX=0.889;entryY=-0.05;entryDx=0;entryDy=0;entryPerimeter=0;" edge="1" parent="WIyWlLk6GJQsqaUBKTNV-1" target="o8BdS--VJKAUu7oqtnM3-0">
          <mxGeometry width="50" height="50" relative="1" as="geometry">
            <mxPoint x="551.72" y="180" as="sourcePoint" />
            <mxPoint x="530.0000000000002" y="160.51999999999998" as="targetPoint" />
            <Array as="points">
              <mxPoint x="580" y="170" />
              <mxPoint x="580" y="140" />
              <mxPoint x="551.72" y="130" />
            </Array>
          </mxGeometry>
        </mxCell>
      </root>
    </mxGraphModel>
  </diagram>
</mxfile>
